<svg id="SvgjsSvg1011" width="256" height="256" xmlns="http://www.w3.org/2000/svg" version="1.1" xmlns:xlink="http://www.w3.org/1999/xlink" xmlns:svgjs="http://svgjs.com/svgjs"><defs id="SvgjsDefs1012"></defs><g id="SvgjsG1013"><svg xmlns="http://www.w3.org/2000/svg" viewBox="0 0 1024 1024" width="256" height="256"><path d="M299.6 289.8c0-117.1 95.3-212.4 212.4-212.4 117.1 0 212.4 95.3 212.4 212.4 0 117.1-95.3 212.4-212.4 212.4-117.1 0-212.4-95.3-212.4-212.4zm581.6 465.8v159.2c0 17.6-14.3 31.9-31.9 31.9H174.7c-17.6 0-31.9-14.3-31.9-31.9V755.6c0-59.3 23.1-115.1 65-157.1 42-42 97.7-65.1 157.1-65.2h4l3.5 2c42.3 24.1 90.6 36.9 139.6 36.9s97.3-12.8 139.6-36.9l3.5-2h4c59.3 0 115.1 23.2 157.1 65.2 41.9 42 65 97.8 65 157.1z" fill="#000000" class="color000 svgShape"></path></svg></g></svg>